<svg xmlns="http://www.w3.org/2000/svg" viewBox="0 0 96 132">
  <defs>
    <linearGradient id="metal" x1="0" y1="0" x2="1" y2=".2">
      <stop offset="0" stop-color="#55585b"/>
      <stop offset=".24" stop-color="#d4d6d7"/>
      <stop offset=".54" stop-color="#8c9093"/>
      <stop offset=".8" stop-color="#e3e4e4"/>
      <stop offset="1" stop-color="#686c6f"/>
    </linearGradient>
    <filter id="shadow" x="-50%" y="-40%" width="220%" height="220%">
      <feGaussianBlur stdDeviation="2"/>
    </filter>
  </defs>

  <path d="M10 34 61 12 87 28 84 105 25 127 9 84Z" fill="#1e2022" opacity=".12" filter="url(#shadow)"/>
  <path d="M8 23 56 5Q79 5 89 27L89 61 53 83 8 68Z" fill="url(#metal)"/>
  <circle cx="46" cy="61" r="27" fill="#efeeeb"/>
  <circle cx="46" cy="61" r="9" fill="#76797b"/>
  <path d="M8 23 46 52Q55 59 46 67L8 95Z" fill="#7e8285"/>
  <path d="M68 55H90V108L85 104 80 114 75 108 70 118 64 111V69Z" fill="#f3f2ef"/>
</svg>
